<svg width="21" height="20" viewBox="0 0 21 20" fill="none" xmlns="http://www.w3.org/2000/svg">
<g id="google">
<path id="Shape" fill-rule="evenodd" clip-rule="evenodd" d="M18.6667 10.1899C18.6667 9.59899 18.6137 9.03081 18.5152 8.48535H10.6667V11.7088H15.1516C14.9584 12.7505 14.3713 13.6331 13.4887 14.224V16.3149H16.1819C17.7577 14.8641 18.6667 12.7278 18.6667 10.1899Z" fill="#4285F4"/>
<path id="Shape_2" fill-rule="evenodd" clip-rule="evenodd" d="M10.6667 18.333C12.9167 18.333 14.8031 17.5868 16.1818 16.3141L13.4887 14.2232C12.7425 14.7232 11.7879 15.0186 10.6667 15.0186C8.49624 15.0186 6.65912 13.5527 6.00382 11.583H3.21973V13.7421C4.59094 16.4656 7.40912 18.333 10.6667 18.333Z" fill="#34A853"/>
<path id="Shape_3" fill-rule="evenodd" clip-rule="evenodd" d="M6.00371 11.5836C5.83704 11.0836 5.74234 10.5495 5.74234 10.0002C5.74234 9.45099 5.83704 8.9169 6.00371 8.4169V6.25781H3.21962C2.65522 7.38281 2.33325 8.65554 2.33325 10.0002C2.33325 11.3449 2.65522 12.6177 3.21962 13.7427L6.00371 11.5836Z" fill="#FBBC05"/>
<path id="Shape_4" fill-rule="evenodd" clip-rule="evenodd" d="M10.6667 4.98139C11.8902 4.98139 12.9887 5.40184 13.8523 6.2276L16.2425 3.83745C14.7993 2.49275 12.9129 1.66699 10.6667 1.66699C7.40912 1.66699 4.59094 3.53442 3.21973 6.2579L6.00382 8.41699C6.65912 6.4473 8.49624 4.98139 10.6667 4.98139Z" fill="#EA4335"/>
</g>
</svg>
