<svg width="20" height="20" viewBox="0 0 20 20" fill="none" xmlns="http://www.w3.org/2000/svg">
<g id="kakao">
<path id="Vector" d="M10.0001 2.1875C5.40286 2.1875 1.66675 5.08333 1.66675 8.65278C1.66675 10.875 3.11119 12.8195 5.31258 14L4.38203 17.3958C4.36673 17.4632 4.37188 17.5336 4.39682 17.5981C4.42176 17.6625 4.46536 17.718 4.52203 17.7575C4.5787 17.797 4.64586 17.8188 4.71495 17.8199C4.78403 17.821 4.85188 17.8015 4.90981 17.7639L8.95841 15.0694C9.30448 15.1054 9.65215 15.124 10.0001 15.125C14.6042 15.125 18.3334 12.2292 18.3334 8.65278C18.3334 5.07639 14.6042 2.1875 10.0001 2.1875Z" fill="#111112"/>
</g>
</svg>
