<svg width="158" height="42" viewBox="0 0 158 42" fill="none" xmlns="http://www.w3.org/2000/svg">
<g clip-path="url(#clip0_71_3752)">
<path d="M114.988 23.677C114.988 26.9273 114.988 30.1807 114.988 33.431C114.988 33.6724 114.985 33.9137 114.957 34.155C114.912 34.5374 114.65 34.8195 114.216 34.8634C113.374 34.948 112.525 34.9386 111.683 34.8603C111.243 34.8195 110.945 34.5061 110.904 34.108C110.878 33.8792 110.866 33.6504 110.866 33.4216C110.863 30.6603 110.859 27.8958 110.859 25.1344C110.859 24.8147 110.866 24.8712 110.568 24.8712C108.178 24.8712 105.79 24.8712 103.4 24.8774C103.134 24.8774 103.134 24.8837 103.134 25.1219C103.134 26.7079 103.134 28.2938 103.134 29.8798C103.134 31.1837 103.127 32.4844 103.124 33.7883C103.124 33.8792 103.124 33.9701 103.118 34.061C103.089 34.5531 102.801 34.8321 102.244 34.8791C101.427 34.9449 100.607 34.9386 99.79 34.8791C99.4575 34.854 99.2232 34.6879 99.0997 34.4121C98.9984 34.1832 98.9825 33.945 98.9825 33.7006C98.9825 27.3128 98.9825 20.925 98.9825 14.5373C98.9825 14.1392 98.9414 13.7412 99.0142 13.3462C99.1155 12.7883 99.3625 12.5344 99.9894 12.4592C100.781 12.3652 101.582 12.3432 102.374 12.478C102.792 12.5501 103.023 12.7821 103.086 13.155C103.149 13.5249 103.134 13.901 103.134 14.274C103.14 16.5777 103.14 18.8815 103.134 21.1883C103.134 21.3325 103.184 21.3638 103.33 21.3638C104.641 21.3638 105.952 21.3701 107.263 21.3732C108.396 21.3732 109.53 21.3638 110.663 21.3732C110.831 21.3732 110.859 21.3137 110.859 21.1946C110.859 20.9219 110.866 20.6523 110.869 20.3797C110.869 18.2452 110.869 16.1076 110.869 13.9731C110.869 13.7913 110.878 13.6126 110.894 13.4309C110.951 12.8228 111.23 12.5344 111.901 12.4561C112.626 12.3715 113.358 12.3715 114.086 12.4467C114.643 12.5062 114.897 12.757 114.963 13.2491C114.985 13.4058 114.992 13.5625 114.992 13.7192C114.992 17.0416 114.992 20.3671 114.992 23.6895L114.988 23.677Z" fill="#222222"/>
<path d="M60.54 23.6018C60.54 26.9743 60.54 30.3437 60.54 33.7163C60.54 33.873 60.5241 34.0297 60.5051 34.1864C60.4608 34.5531 60.1885 34.8258 59.7769 34.8665C58.941 34.948 58.0987 34.9418 57.2628 34.8665C56.8734 34.8321 56.6232 34.6127 56.5314 34.271C56.4966 34.1425 56.4364 34.1237 56.3003 34.1707C55.211 34.5312 54.0838 34.7662 52.9249 34.854C51.7122 34.948 50.5217 34.8665 49.3945 34.4309C48.1058 33.9325 47.2414 33.0612 46.6556 31.9516C46.1997 31.0866 45.959 30.1682 45.8007 29.231C45.5917 27.9804 45.5506 26.7204 45.6392 25.4604C45.7374 24.0124 45.9717 22.5831 46.6208 21.2354C47.235 19.9628 48.1691 18.941 49.6193 18.3455C50.8257 17.8503 52.1017 17.7343 53.4157 17.8127C54.4036 17.8691 55.3504 18.101 56.3098 18.2797C56.4902 18.3142 56.5282 18.2797 56.5282 18.1198C56.5219 16.6122 56.5219 15.1046 56.5187 13.597C56.5187 13.4528 56.5219 13.3086 56.5346 13.1645C56.5662 12.7633 56.8227 12.5251 57.2723 12.4718C57.6808 12.4248 58.0892 12.4467 58.5009 12.4467C58.9378 12.4467 59.3748 12.4216 59.8086 12.4718C60.2392 12.5219 60.4545 12.7037 60.5178 13.0798C60.5368 13.1864 60.5431 13.2961 60.5431 13.4027C60.5431 16.8034 60.5431 20.2073 60.5431 23.608L60.54 23.6018ZM56.5251 26.2127C56.5251 24.7583 56.5251 23.3071 56.5282 21.8528C56.5282 21.7337 56.4712 21.6836 56.3572 21.6428C55.4802 21.3294 54.5746 21.1163 53.6247 21.0818C52.1365 21.0285 51.0726 21.6021 50.3982 22.7649C49.9644 23.5171 49.7871 24.3321 49.689 25.1627C49.575 26.1249 49.575 27.0903 49.689 28.0525C49.7744 28.7797 49.9359 29.4943 50.3064 30.1557C50.6895 30.8358 51.2563 31.331 52.1239 31.4909C52.6716 31.5912 53.2257 31.5442 53.7735 31.4877C54.6696 31.3937 55.5118 31.1461 56.3256 30.8076C56.4712 30.748 56.5251 30.6791 56.5251 30.538C56.5187 29.0963 56.5219 27.6576 56.5251 26.2158V26.2127Z" fill="#222222"/>
<path d="M151.87 26.7235C150.435 26.7235 149.001 26.7298 147.567 26.7172C147.351 26.7172 147.31 26.7736 147.317 26.946C147.342 27.5854 147.275 28.2248 147.364 28.8611C147.446 29.4566 147.608 30.0333 147.997 30.5411C148.434 31.1116 149.049 31.4469 149.812 31.5566C150.758 31.6914 151.692 31.6287 152.595 31.3341C153.443 31.0583 153.918 30.5129 154.001 29.7105C154.007 29.6572 154.017 29.6039 154.029 29.5507C154.108 29.1933 154.333 29.0241 154.745 28.999C155.236 28.9677 155.707 29.0742 156.189 29.1244C156.458 29.1526 156.73 29.1714 156.993 29.2435C157.506 29.3845 157.797 29.7262 157.75 30.1932C157.613 31.5692 157.091 32.7884 155.866 33.7068C155.448 34.0202 154.982 34.271 154.479 34.4653C153.386 34.8853 152.234 35.0357 151.053 35.0796C149.853 35.1235 148.662 35.0483 147.516 34.716C146.443 34.4026 145.518 33.8823 144.815 33.0705C144.049 32.1804 143.678 31.1617 143.473 30.0804C143.34 29.3751 143.318 28.6636 143.314 27.9522C143.308 26.8175 143.314 25.6829 143.314 24.5514C143.314 23.4983 143.4 22.4514 143.742 21.439C144.106 20.3577 144.704 19.4017 145.737 18.6839C146.547 18.1198 147.459 17.775 148.463 17.5869C149.9 17.3174 151.344 17.2516 152.785 17.5368C154.719 17.9192 156.037 18.9629 156.825 20.552C157.253 21.4139 157.477 22.326 157.607 23.2538C157.702 23.9308 157.75 24.611 157.74 25.2942C157.74 25.4259 157.737 25.5607 157.727 25.6923C157.677 26.3192 157.351 26.6138 156.641 26.6828C156.363 26.711 156.084 26.7204 155.802 26.7204C154.491 26.7204 153.181 26.7204 151.87 26.7204V26.7235ZM150.556 23.5422C151.059 23.5422 151.566 23.5422 152.069 23.5422C152.573 23.5422 153.079 23.539 153.583 23.5422C153.754 23.5422 153.846 23.5328 153.808 23.3416C153.77 23.1347 153.754 22.9216 153.713 22.7147C153.488 21.6302 152.737 20.9595 151.515 20.7463C150.828 20.6272 150.144 20.6617 149.47 20.8184C148.637 21.0128 148.026 21.4484 147.662 22.1442C147.462 22.5266 147.386 22.9341 147.323 23.3478C147.301 23.4951 147.342 23.5453 147.522 23.5422C148.532 23.5328 149.543 23.539 150.553 23.539L150.556 23.5422Z" fill="#222222"/>
<path d="M71.9355 26.7233C70.4822 26.7233 69.0257 26.7233 67.5723 26.7233C67.4647 26.7233 67.3602 26.7013 67.3602 26.8612C67.3538 27.7357 67.338 28.6101 67.5502 29.4721C67.8731 30.801 68.9307 31.5752 70.4695 31.616C71.2073 31.6348 71.9292 31.5784 72.6258 31.3527C73.4807 31.0769 73.9715 30.5472 74.0665 29.7322C74.133 29.1681 74.3926 28.9831 75.0385 28.9925C75.4565 28.9988 75.8618 29.0897 76.2766 29.1336C76.5077 29.1586 76.7389 29.1712 76.9637 29.2213C77.5969 29.3655 77.9136 29.7886 77.8122 30.3591C77.7046 30.9734 77.5621 31.5784 77.2676 32.1488C76.8149 33.0201 76.1151 33.6878 75.1842 34.1798C74.4179 34.5842 73.5852 34.8098 72.7113 34.9415C71.6157 35.1045 70.517 35.1264 69.4088 35.0418C68.7755 34.9948 68.1644 34.8819 67.5692 34.7127C66.9486 34.5372 66.3628 34.2801 65.8372 33.9166C64.6181 33.0672 63.9849 31.9263 63.6619 30.6161C63.4434 29.726 63.3896 28.8264 63.3801 27.9206C63.3674 26.7452 63.3674 25.5667 63.3801 24.3913C63.3928 23.4009 63.4878 22.4136 63.7981 21.4576C64.216 20.1694 64.9981 19.0943 66.2931 18.3609C67.0024 17.9597 67.794 17.7121 68.6267 17.5648C69.7603 17.3642 70.897 17.3078 72.0464 17.4175C73.1609 17.524 74.1868 17.8406 75.0829 18.4455C76.0359 19.0881 76.6439 19.9469 77.0587 20.9248C77.4703 21.8933 77.6571 22.8994 77.7521 23.9243C77.7901 24.3224 77.8059 24.7204 77.8312 25.1154C77.8502 25.4069 77.8059 25.6952 77.7426 25.9773C77.6476 26.391 77.2803 26.6292 76.7104 26.6888C76.2797 26.7327 75.8523 26.7233 75.4217 26.7233C74.2596 26.7233 73.1007 26.7233 71.9387 26.7233H71.9355ZM70.631 23.5419C71.6474 23.5419 72.667 23.5388 73.6833 23.5451C73.8765 23.5451 73.9177 23.4981 73.8828 23.3382C73.8353 23.1251 73.8227 22.9088 73.7752 22.6957C73.5409 21.6269 72.7841 20.9592 71.5746 20.7461C70.8843 20.627 70.2036 20.6646 69.5291 20.8213C68.766 21 68.1834 21.3886 67.8066 22.0061C67.5533 22.423 67.4552 22.8775 67.3887 23.3382C67.3665 23.4981 67.4108 23.5451 67.5977 23.5419C68.6077 23.5325 69.6178 23.5388 70.6278 23.5388L70.631 23.5419Z" fill="#222222"/>
<path d="M81.1623 17.458C81.6531 17.4737 82.1249 17.433 82.5903 17.5239C83.0431 17.6116 83.3344 17.8342 83.4453 18.2322C83.6067 18.8183 83.6859 19.417 83.8157 20.0094C84.4015 22.6924 85.1709 25.3315 86.4343 27.8358C86.7921 28.5473 87.2005 29.2337 87.6976 29.8794C87.8306 30.0549 87.8275 30.0518 87.9573 29.8731C89.132 28.2276 89.9046 26.4316 90.5315 24.5792C91.1996 22.614 91.6904 20.6143 92.0577 18.5927C92.2255 17.6649 92.6561 17.5082 93.568 17.4643C94.1728 17.4361 94.7839 17.4549 95.3918 17.4612C95.9301 17.4643 96.1454 17.6618 96.1391 18.1413C96.1327 18.5049 96.0473 18.8591 95.9871 19.2164C95.8034 20.326 95.5501 21.423 95.2493 22.5106C94.4989 25.2092 93.4319 27.8076 92.1337 30.337C91.4624 31.644 90.6803 32.9009 89.8824 34.1483C89.7716 34.3207 89.6449 34.4868 89.4803 34.6248C89.2238 34.841 88.9072 34.9257 88.5652 34.9319C88.0206 34.9382 87.4728 34.9413 86.9282 34.9163C86.3678 34.8912 85.9783 34.6498 85.7155 34.2267C85.2057 33.4024 84.6801 32.5843 84.2052 31.7443C82.8405 29.3309 81.7164 26.8328 80.852 24.247C80.4182 22.9525 80.0699 21.6392 79.7945 20.3134C79.6615 19.674 79.5285 19.0346 79.4588 18.3858C79.443 18.2479 79.4335 18.11 79.4557 17.9721C79.5 17.6963 79.652 17.5552 79.9591 17.4988C80.3644 17.4267 80.776 17.48 81.1623 17.458Z" fill="#222222"/>
<path d="M126.621 17.4613C127.144 17.4675 127.606 17.4519 128.068 17.524C128.556 17.5992 128.847 17.8405 128.968 18.2574C129.107 18.7432 129.18 19.2384 129.278 19.7305C129.62 21.4074 130.06 23.0654 130.627 24.6953C131.127 26.1371 131.732 27.5413 132.527 28.8796C132.736 29.2338 132.986 29.5629 133.223 29.9014C133.312 30.0299 133.369 30.0174 133.461 29.892C134.676 28.2026 135.455 26.3502 136.095 24.4445C136.716 22.5953 137.181 20.7147 137.536 18.809C137.567 18.6366 137.612 18.4674 137.65 18.295C137.751 17.8468 138.061 17.5866 138.574 17.524C139.429 17.4174 140.287 17.4331 141.145 17.4957C141.465 17.5177 141.589 17.6619 141.642 17.944C141.709 18.2981 141.604 18.6398 141.547 18.9845C141.335 20.2728 141.05 21.5484 140.683 22.8084C139.701 26.1966 138.267 29.4281 136.421 32.5186C136.067 33.111 135.687 33.6877 135.313 34.2675C135.015 34.7314 134.553 34.9414 133.958 34.932C133.445 34.9257 132.935 34.9414 132.422 34.9132C131.89 34.885 131.507 34.6562 131.257 34.2519C130.836 33.578 130.405 32.9072 130.003 32.2208C128.914 30.3653 127.977 28.4471 127.185 26.4756C126.46 24.664 125.88 22.8147 125.45 20.9278C125.26 20.1004 125.108 19.2698 124.981 18.4329C124.962 18.295 124.956 18.154 124.969 18.0192C124.997 17.6932 125.155 17.549 125.519 17.4895C125.906 17.4237 126.295 17.4738 126.624 17.455L126.621 17.4613Z" fill="#222222"/>
<path d="M118.079 26.2313C118.079 23.8116 118.079 21.395 118.079 18.9753C118.079 18.7779 118.091 18.5773 118.11 18.3798C118.155 17.8752 118.462 17.5492 119.051 17.4834C119.776 17.4019 120.51 17.3831 121.235 17.4834C121.85 17.5649 122.119 17.8501 122.198 18.408C122.23 18.6243 122.246 18.8406 122.246 19.0568C122.246 23.8712 122.246 28.6823 122.246 33.4967C122.246 33.7192 122.227 33.9418 122.17 34.1612C122.062 34.578 121.786 34.8194 121.305 34.8664C120.529 34.9385 119.75 34.9416 118.975 34.8726C118.468 34.8288 118.158 34.5216 118.107 34.0703C118.06 33.6315 118.082 33.1895 118.079 32.7507C118.079 30.5786 118.079 28.4065 118.079 26.2376V26.2313Z" fill="#222222"/>
<path d="M120.105 16.2984C119.697 16.3141 119.285 16.3517 118.883 16.2639C118.405 16.1605 118.145 15.8972 118.11 15.4647C118.06 14.8221 118.056 14.1765 118.113 13.5339C118.155 13.0638 118.465 12.7441 119.003 12.6814C119.747 12.5936 120.501 12.5748 121.245 12.6751C121.818 12.7503 122.1 13.0074 122.185 13.512C122.293 14.1577 122.284 14.8096 122.195 15.4584C122.109 16.0727 121.596 16.2545 121.068 16.2921C120.751 16.3172 120.428 16.2953 120.108 16.2953L120.105 16.2984Z" fill="#222222"/>
<path d="M36.4524 28.3169C36.9566 27.0381 37.1456 25.7196 36.9967 24.3613C36.8448 22.9832 36.3751 21.71 35.5902 20.5531C34.8626 19.4813 33.9316 18.6306 32.8087 17.9841C32.591 17.8565 32.3676 17.7487 32.1384 17.6523C31.9751 17.5843 31.8119 17.5219 31.6457 17.4652C30.689 17.1476 29.6778 17.0398 28.6609 16.9831C28.6379 16.9831 28.615 16.9831 28.595 16.9803C28.4661 16.9718 28.3343 16.9689 28.2054 16.9633C27.5036 16.9377 26.796 16.9519 26.0914 16.9973C25.5987 17.0285 25.106 17.0512 24.6161 17.0937C24.1406 17.1362 23.6651 17.2043 23.1896 17.2497C22.4419 17.3177 21.7 17.4283 20.9581 17.5417C20.7118 17.5786 20.6029 17.7686 20.6974 17.9954C20.9638 18.6306 21.2331 19.2658 21.5024 19.8981C21.6284 20.1958 21.7573 20.4964 21.8834 20.7941C21.9693 21.0011 22.124 21.0749 22.3474 21.0408C22.6138 20.9983 22.8859 20.9643 23.1552 20.9331C23.2526 20.9217 23.35 20.9104 23.4503 20.8991C24.4815 20.78 25.5156 20.6836 26.5526 20.6439C27.6354 20.6042 28.7181 20.607 29.7924 20.7771C29.8038 20.7771 29.8153 20.78 29.8267 20.7828C30.0072 20.8112 30.1877 20.8509 30.3624 20.9019C30.5772 20.9643 30.7863 21.0493 30.9811 21.1628C31.9035 21.7044 32.5795 22.453 32.9863 23.4397C33.5564 24.8235 33.4475 26.1761 32.7715 27.4918C32.7027 27.6166 32.634 27.7413 32.5652 27.8661C32.5509 27.8916 32.5337 27.9115 32.5165 27.9341C31.5999 29.1478 30.3939 29.8595 28.8528 29.9389C27.4749 30.0126 26.2718 29.6185 25.3494 28.541C24.5216 27.5769 23.8513 26.5078 23.2211 25.4105C23.0664 25.1383 22.9117 24.866 22.7628 24.591C22.5307 24.16 22.3073 23.7261 22.0896 23.2866C21.7516 22.6061 21.4308 21.9142 21.1214 21.2195C21.1071 21.1911 21.0956 21.1599 21.0813 21.1316C20.9037 20.7289 20.7318 20.3263 20.5628 19.9208C20.1389 18.9085 19.7292 17.8905 19.2881 16.8839C18.7381 15.6305 18.1394 14.4027 17.4863 13.1976C16.9277 12.1655 16.3405 11.1503 15.6644 10.1919C15.5986 10.0955 15.5298 10.0019 15.4611 9.90549C15.3809 9.7949 15.3006 9.68715 15.2176 9.5794C14.659 8.85065 14.066 8.17295 13.3585 7.61717C13.2324 7.51509 13.1007 7.41868 12.966 7.32794C12.6423 7.10677 12.2957 6.91395 11.9205 6.74948C10.9408 6.32698 9.92963 6.08312 8.87262 6.02641C7.8557 5.97537 6.86457 6.12565 5.89349 6.42906C4.45263 6.87708 3.22947 7.66254 2.21543 8.75424C1.34174 9.69566 0.717271 10.7845 0.359203 12.018C-0.170737 13.8526 -0.0991233 15.6617 0.602689 17.4481C1.29877 19.2232 2.48183 20.5843 4.11175 21.5796C5.18882 22.2346 6.38906 22.4728 7.61795 22.5947C8.57757 22.6911 9.54578 22.6968 10.5111 22.66C12.0838 22.5976 13.6507 22.4445 15.2061 22.2289C15.3923 22.2034 15.5756 22.1779 15.7618 22.1495C15.8592 22.1354 15.9595 22.1212 16.0569 22.1042C16.3949 22.0503 16.4808 21.9057 16.3433 21.5881C15.9652 20.6949 15.5842 19.8017 15.2061 18.9085C15.0829 18.6164 14.9483 18.5484 14.6132 18.6022C14.3582 18.6448 14.1061 18.6816 13.8512 18.7128C13.7824 18.7213 13.7166 18.7298 13.6478 18.7355C13.1494 18.7922 12.6538 18.8433 12.1554 18.8858C11.6541 18.9283 11.1528 18.9624 10.6486 18.985C9.53146 19.0361 8.41715 19.0332 7.31144 18.8688C6.83593 18.7979 6.37474 18.6703 5.96224 18.4094C5.09715 17.865 4.4555 17.1391 4.07738 16.192C3.45291 14.6352 3.57895 13.121 4.53284 11.76C5.63282 10.1919 7.20832 9.50851 9.14188 9.73819C9.91817 9.82893 10.6057 10.1011 11.1872 10.5747C11.3218 10.6853 11.4536 10.8044 11.5767 10.9376C11.634 10.9972 11.6885 11.0596 11.74 11.122C12.2069 11.6777 12.6338 12.2619 13.0262 12.8687C13.7223 13.949 14.3296 15.0748 14.8996 16.2203C15.1059 16.6343 15.3064 17.054 15.5069 17.4737C15.6644 17.8083 15.8191 18.1457 15.9652 18.4831C16.3691 19.4047 16.7415 20.3376 17.1282 21.262C17.4261 21.9766 17.7355 22.6855 18.0592 23.3887C18.1365 23.556 18.2139 23.7261 18.2941 23.8934C18.6894 24.7384 19.1076 25.5721 19.5488 26.3944C20.3537 27.8944 21.2302 29.3491 22.3216 30.6705C22.5193 30.9115 22.7284 31.1384 22.9432 31.3539C23.3701 31.7792 23.8312 32.1535 24.3354 32.4654C24.7995 32.7546 25.3008 32.9928 25.845 33.1715C27.432 33.6932 29.0361 33.7641 30.6603 33.3586C31.6285 33.1176 32.528 32.7291 33.3472 32.1677C34.7709 31.1922 35.8251 29.9247 36.461 28.3169H36.4524Z" fill="#FFC301"/>
<path d="M22.7972 33.4883C22.4219 33.2104 22.0581 32.8956 21.7115 32.5525C21.4595 32.3002 21.2102 32.028 20.9782 31.7472C19.9613 30.5194 19.0475 29.113 18.0191 27.1933C17.4921 26.2122 16.9879 25.197 16.4837 24.0912V24.0855C16.4408 23.9976 16.372 23.9267 16.2918 23.8842C16.2088 23.8388 16.1142 23.8218 16.014 23.836C14.0718 24.1252 12.2929 24.2982 10.5713 24.3662C9.39974 24.4116 8.37423 24.3889 7.43753 24.2925C6.63259 24.2131 5.64433 24.0713 4.64174 23.714C4.4269 23.6375 4.18628 23.731 4.08888 23.938C1.4621 29.4816 2.61078 34.4921 6.0912 37.5035L6.18286 41.1075C6.19432 41.5896 6.72712 41.876 7.14248 41.6236L10.2333 39.7549C14.6991 41.0565 19.6147 39.3012 22.9118 34.0724C23.0321 33.8796 22.9834 33.6272 22.8001 33.4911L22.7972 33.4883ZM10.706 27.7632C11.8776 27.7179 13.0692 27.6271 14.3067 27.4882C14.5273 27.9305 14.7536 28.3615 14.9827 28.7869C16.0541 30.7831 17.0251 32.2945 18.1022 33.6357L7.03649 27.6725C7.05368 27.6725 7.07373 27.6753 7.09092 27.6782C8.18517 27.7888 9.36823 27.8171 10.7088 27.7661L10.706 27.7632ZM9.7177 35.873C8.02762 34.9628 6.86749 33.5819 6.36906 31.8777C6.29458 31.6196 6.23442 31.3588 6.18859 31.0894L15.6931 36.2104C15.4411 36.3182 15.1861 36.4118 14.9283 36.4883C13.2124 36.9959 11.4106 36.7832 9.72057 35.873H9.7177Z" fill="#FFC301"/>
<path d="M16.8475 8.91276C16.8819 8.96097 16.9162 9.00917 16.9535 9.05738L19.2709 7.65376C20.5972 6.85129 22.2729 6.80876 23.6393 7.54601L26.1229 8.88441C27.4893 9.62166 28.3629 11.0338 28.4002 12.5735L28.4689 15.273C28.5348 15.273 28.6007 15.2787 28.6666 15.2815C28.6924 15.2815 28.7153 15.2815 28.7411 15.2843H28.7582C29.7207 15.3382 30.815 15.4431 31.9064 15.7635C31.9121 15.6047 31.9121 15.446 31.9064 15.2843L31.8348 12.4884C31.7918 10.8239 31.2103 9.24736 30.2163 7.96851C30.2564 7.93732 30.2965 7.90046 30.3309 7.8636L32.0009 6.03464C32.4592 5.53274 32.3017 4.68207 31.6486 4.13764C30.9955 3.5932 30.0931 3.55918 29.6348 4.06108L27.9648 5.89003C27.9419 5.91555 27.9189 5.9439 27.8989 5.97226C27.8531 5.94674 27.8072 5.92122 27.7614 5.8957L25.2778 4.5573C25.232 4.53178 25.1833 4.5091 25.1375 4.48358C25.1489 4.45239 25.1604 4.41836 25.1718 4.38433L25.8192 2.00528C25.9968 1.35026 25.4783 0.618674 24.662 0.371978C23.8456 0.125282 23.0378 0.45421 22.8602 1.10923L22.2128 3.48829C22.1985 3.53933 22.1899 3.59037 22.1841 3.64141C20.5599 3.50814 18.9071 3.8796 17.472 4.75012L15.06 6.21045C14.9197 6.29552 14.7822 6.38342 14.6504 6.47699C15.4639 7.16321 16.0913 7.92598 16.5725 8.55548C16.6699 8.68024 16.7587 8.79934 16.8418 8.9156L16.8475 8.91276Z" fill="#FFC301"/>
</g>
<defs>
<clipPath id="clip0_71_3752">
<rect width="158" height="42" fill="white"/>
</clipPath>
</defs>
</svg>