<svg width="128" height="34" viewBox="0 0 128 34" fill="none" xmlns="http://www.w3.org/2000/svg">
<g clip-path="url(#clip0_53_772)">
<path d="M93.155 19.1669C93.155 21.7981 93.155 24.4318 93.155 27.063C93.155 27.2584 93.1524 27.4537 93.1293 27.6491C93.0934 27.9587 92.8805 28.187 92.5291 28.2225C91.8467 28.291 91.1593 28.2834 90.477 28.22C90.1204 28.187 89.8793 27.9333 89.8459 27.611C89.8254 27.4258 89.8152 27.2406 89.8152 27.0554C89.8126 24.82 89.81 22.5821 89.81 20.3467C89.81 20.0879 89.8152 20.1336 89.574 20.1336C87.6374 20.1336 85.7033 20.1336 83.7666 20.1387C83.5511 20.1387 83.5511 20.1437 83.5511 20.3366C83.5511 21.6204 83.5511 22.9043 83.5511 24.1882C83.5511 25.2437 83.546 26.2967 83.5434 27.3522C83.5434 27.4258 83.5434 27.4994 83.5383 27.573C83.5152 27.9713 83.2818 28.1972 82.8303 28.2352C82.1685 28.2885 81.5041 28.2834 80.8423 28.2352C80.573 28.2149 80.3832 28.0804 80.2831 27.8572C80.2011 27.6719 80.1882 27.4791 80.1882 27.2812C80.1882 22.1101 80.1882 16.9391 80.1882 11.7681C80.1882 11.4458 80.1549 11.1236 80.2139 10.8039C80.296 10.3522 80.496 10.1467 81.0039 10.0858C81.6452 10.0097 82.2942 9.99194 82.9355 10.101C83.2741 10.1594 83.4613 10.3472 83.5126 10.6491C83.5639 10.9485 83.5511 11.253 83.5511 11.5549C83.5562 13.4198 83.5562 15.2848 83.5511 17.1522C83.5511 17.269 83.5922 17.2943 83.7101 17.2943C84.7721 17.2943 85.8341 17.2994 86.896 17.3019C87.8144 17.3019 88.7327 17.2943 89.651 17.3019C89.7869 17.3019 89.81 17.2537 89.81 17.1573C89.81 16.9366 89.8152 16.7184 89.8177 16.4976C89.8177 14.7697 89.8177 13.0393 89.8177 11.3113C89.8177 11.1642 89.8254 11.0195 89.8383 10.8724C89.8844 10.3801 90.1102 10.1467 90.654 10.0833C91.2414 10.0148 91.8339 10.0148 92.4239 10.0757C92.8754 10.1239 93.0806 10.3269 93.1344 10.7252C93.1524 10.8521 93.1575 10.979 93.1575 11.1058C93.1575 13.7954 93.1575 16.4875 93.1575 19.177L93.155 19.1669Z" fill="#222222"/>
<path d="M49.045 19.106C49.045 21.8361 49.045 24.5637 49.045 27.2939C49.045 27.4207 49.0322 27.5476 49.0168 27.6745C48.9809 27.9713 48.7603 28.1921 48.4268 28.2251C47.7496 28.291 47.0673 28.286 46.3901 28.2251C46.0746 28.1972 45.8719 28.0195 45.7976 27.743C45.7693 27.639 45.7206 27.6237 45.6103 27.6618C44.7279 27.9536 43.8147 28.1439 42.8759 28.2149C41.8934 28.291 40.9289 28.2251 40.0158 27.8724C38.9717 27.469 38.2715 26.7636 37.7969 25.8654C37.4275 25.1651 37.2326 24.4216 37.1043 23.663C36.935 22.6506 36.9017 21.6306 36.9735 20.6106C37.053 19.4384 37.2428 18.2813 37.7687 17.1903C38.2663 16.1601 39.023 15.333 40.1979 14.8509C41.1752 14.45 42.2089 14.3561 43.2735 14.4195C44.0738 14.4652 44.8408 14.653 45.618 14.7976C45.7642 14.8255 45.795 14.7976 45.795 14.6682C45.7899 13.4478 45.7899 12.2273 45.7873 11.0069C45.7873 10.8901 45.7899 10.7734 45.8001 10.6567C45.8258 10.3319 46.0336 10.1391 46.3978 10.096C46.7287 10.0579 47.0596 10.0757 47.3931 10.0757C47.7471 10.0757 48.101 10.0554 48.4525 10.096C48.8013 10.1366 48.9758 10.2837 49.0271 10.5882C49.0425 10.6745 49.0476 10.7633 49.0476 10.8495C49.0476 13.6025 49.0476 16.3581 49.0476 19.111L49.045 19.106ZM45.7924 21.2196C45.7924 20.0422 45.7924 18.8675 45.795 17.6901C45.795 17.5937 45.7488 17.5531 45.6565 17.5201C44.9459 17.2664 44.2123 17.0939 43.4428 17.066C42.2372 17.0228 41.3753 17.4872 40.8289 18.4285C40.4775 19.0375 40.3338 19.6972 40.2543 20.3695C40.162 21.1485 40.162 21.93 40.2543 22.709C40.3236 23.2976 40.4544 23.8761 40.7545 24.4115C41.0649 24.9621 41.5241 25.363 42.2269 25.4924C42.6707 25.5736 43.1196 25.5355 43.5633 25.4898C44.2893 25.4137 44.9716 25.2133 45.6308 24.9393C45.7488 24.891 45.7924 24.8352 45.7924 24.721C45.7873 23.5539 45.7899 22.3893 45.7924 21.2221V21.2196Z" fill="#222222"/>
<path d="M123.034 21.6331C121.872 21.6331 120.71 21.6382 119.548 21.6281C119.373 21.6281 119.34 21.6737 119.345 21.8133C119.365 22.3309 119.312 22.8485 119.383 23.3636C119.45 23.8457 119.581 24.3125 119.896 24.7236C120.25 25.1854 120.748 25.4569 121.366 25.5457C122.133 25.6548 122.89 25.604 123.621 25.3655C124.308 25.1422 124.693 24.7007 124.76 24.0512C124.765 24.0081 124.773 23.9649 124.783 23.9218C124.847 23.6325 125.029 23.4955 125.363 23.4752C125.76 23.4498 126.143 23.5361 126.532 23.5767C126.75 23.5995 126.971 23.6148 127.184 23.6731C127.6 23.7873 127.836 24.0639 127.797 24.4419C127.687 25.5558 127.264 26.5428 126.271 27.2863C125.932 27.54 125.555 27.743 125.147 27.9003C124.262 28.2403 123.329 28.3621 122.372 28.3976C121.4 28.4331 120.435 28.3722 119.507 28.1033C118.637 27.8496 117.888 27.4284 117.318 26.7712C116.698 26.0506 116.398 25.226 116.231 24.3506C116.123 23.7797 116.105 23.2037 116.103 22.6278C116.097 21.7093 116.103 20.7907 116.103 19.8748C116.103 19.0222 116.172 18.1748 116.449 17.3552C116.744 16.4798 117.229 15.706 118.065 15.1249C118.722 14.6682 119.46 14.3891 120.274 14.2369C121.438 14.0187 122.608 13.9654 123.775 14.1963C125.342 14.5058 126.409 15.3507 127.048 16.6372C127.394 17.3349 127.576 18.0733 127.682 18.8243C127.759 19.3724 127.797 19.923 127.789 20.4761C127.789 20.5827 127.787 20.6918 127.779 20.7984C127.738 21.3058 127.474 21.5443 126.899 21.6001C126.674 21.623 126.448 21.6306 126.219 21.6306C125.158 21.6306 124.096 21.6306 123.034 21.6306V21.6331ZM121.969 19.0578C122.377 19.0578 122.787 19.0578 123.195 19.0578C123.603 19.0578 124.013 19.0552 124.421 19.0578C124.56 19.0578 124.634 19.0501 124.603 18.8954C124.573 18.7279 124.56 18.5554 124.527 18.3879C124.344 17.51 123.736 16.967 122.746 16.7945C122.19 16.6981 121.636 16.726 121.089 16.8528C120.415 17.0101 119.92 17.3628 119.625 17.9261C119.463 18.2357 119.401 18.5655 119.35 18.9004C119.332 19.0197 119.365 19.0603 119.512 19.0578C120.33 19.0501 121.148 19.0552 121.967 19.0552L121.969 19.0578Z" fill="#222222"/>
<path d="M58.2769 21.6331C57.0995 21.6331 55.9196 21.6331 54.7422 21.6331C54.655 21.6331 54.5703 21.6154 54.5703 21.7448C54.5652 22.4527 54.5524 23.1606 54.7242 23.8584C54.9859 24.9342 55.8426 25.5609 57.0893 25.5939C57.687 25.6091 58.2718 25.5634 58.8361 25.3807C59.5287 25.1575 59.9263 24.7287 60.0033 24.069C60.0571 23.6122 60.2675 23.4625 60.7908 23.4701C61.1294 23.4752 61.4577 23.5488 61.7937 23.5843C61.981 23.6046 62.1682 23.6148 62.3504 23.6554C62.8634 23.7721 63.1199 24.1146 63.0378 24.5764C62.9506 25.0737 62.8352 25.5634 62.5966 26.0252C62.2298 26.7306 61.6629 27.271 60.9088 27.6694C60.288 27.9967 59.6134 28.1794 58.9054 28.286C58.0179 28.4179 57.1278 28.4357 56.23 28.3672C55.7169 28.3291 55.2219 28.2378 54.7396 28.1007C54.2369 27.9587 53.7623 27.7506 53.3365 27.4563C52.3489 26.7687 51.8359 25.8451 51.5742 24.7845C51.3973 24.0639 51.3536 23.3357 51.346 22.6024C51.3357 21.6509 51.3357 20.6969 51.346 19.7454C51.3562 18.9436 51.4332 18.1443 51.6845 17.3704C52.0231 16.3276 52.6567 15.4573 53.7059 14.8636C54.2805 14.5388 54.9217 14.3384 55.5964 14.2191C56.5147 14.0567 57.4356 14.011 58.3667 14.0998C59.2696 14.1861 60.1007 14.4424 60.8267 14.9321C61.5988 15.4522 62.0913 16.1475 62.4273 16.9391C62.7608 17.7231 62.9121 18.5376 62.9891 19.3673C63.0199 19.6895 63.0327 20.0118 63.0532 20.3315C63.0686 20.5675 63.0327 20.8009 62.9814 21.0293C62.9044 21.3642 62.6069 21.557 62.1452 21.6052C61.7963 21.6407 61.45 21.6331 61.1011 21.6331C60.1597 21.6331 59.2209 21.6331 58.2795 21.6331H58.2769ZM57.2201 19.0578C58.0435 19.0578 58.8695 19.0552 59.6929 19.0603C59.8494 19.0603 59.8827 19.0222 59.8545 18.8928C59.816 18.7203 59.8058 18.5452 59.7673 18.3727C59.5775 17.5075 58.9644 16.967 57.9845 16.7945C57.4253 16.6981 56.8738 16.7285 56.3274 16.8554C55.7092 17 55.2373 17.3146 54.932 17.8145C54.7268 18.1519 54.6473 18.5198 54.5934 18.8928C54.5755 19.0222 54.6114 19.0603 54.7627 19.0578C55.581 19.0501 56.3993 19.0552 57.2175 19.0552L57.2201 19.0578Z" fill="#222222"/>
<path d="M65.7517 14.1328C66.1493 14.1455 66.5315 14.1125 66.9086 14.1861C67.2754 14.2572 67.5114 14.4373 67.6012 14.7595C67.732 15.234 67.7961 15.7187 67.9013 16.1982C68.3758 18.3701 68.9992 20.5066 70.0226 22.5339C70.3125 23.1098 70.6434 23.6655 71.0461 24.1882C71.1539 24.3303 71.1513 24.3278 71.2565 24.1831C72.2081 22.851 72.834 21.3972 73.3419 19.8976C73.8832 18.3067 74.2808 16.6879 74.5783 15.0513C74.7143 14.3003 75.0631 14.1734 75.8019 14.1379C76.2918 14.1151 76.7869 14.1303 77.2794 14.1354C77.7155 14.1379 77.8899 14.2978 77.8848 14.686C77.8796 14.9803 77.8104 15.267 77.7616 15.5563C77.6129 16.4545 77.4076 17.3425 77.164 18.223C76.556 20.4076 75.6916 22.511 74.6399 24.5587C74.0961 25.6167 73.4625 26.6342 72.8161 27.644C72.7263 27.7836 72.6237 27.9181 72.4903 28.0297C72.2825 28.2048 72.026 28.2733 71.749 28.2784C71.3078 28.2834 70.864 28.286 70.4228 28.2657C69.9688 28.2454 69.6533 28.05 69.4404 27.7075C69.0274 27.0401 68.6016 26.3779 68.2168 25.6979C67.1112 23.7442 66.2006 21.7219 65.5003 19.6287C65.1489 18.5807 64.8667 17.5176 64.6436 16.4443C64.5358 15.9267 64.4281 15.4091 64.3717 14.8839C64.3588 14.7722 64.3511 14.6606 64.3691 14.549C64.405 14.3257 64.5281 14.2115 64.7769 14.1658C65.1053 14.1075 65.4387 14.1506 65.7517 14.1328Z" fill="#222222"/>
<path d="M102.579 14.1354C103.003 14.1404 103.377 14.1278 103.752 14.1861C104.147 14.247 104.383 14.4424 104.48 14.7798C104.593 15.1731 104.652 15.574 104.731 15.9724C105.009 17.3298 105.365 18.6721 105.824 19.9915C106.229 21.1587 106.719 22.2954 107.363 23.3788C107.533 23.6655 107.735 23.9319 107.928 24.206C107.999 24.31 108.046 24.2998 108.12 24.1984C109.105 22.8307 109.736 21.3312 110.254 19.7885C110.757 18.2915 111.134 16.7691 111.421 15.2264C111.447 15.0869 111.483 14.9498 111.514 14.8103C111.596 14.4475 111.847 14.2369 112.263 14.1861C112.955 14.0998 113.65 14.1125 114.346 14.1633C114.605 14.181 114.705 14.2978 114.748 14.5261C114.802 14.8128 114.718 15.0894 114.671 15.3685C114.499 16.4113 114.269 17.444 113.971 18.464C113.176 21.2069 112.014 23.8228 110.518 26.3246C110.231 26.8042 109.923 27.271 109.621 27.7404C109.379 28.116 109.005 28.286 108.523 28.2784C108.107 28.2733 107.694 28.286 107.279 28.2631C106.848 28.2403 106.537 28.0551 106.335 27.7278C105.994 27.1822 105.645 26.6393 105.319 26.0836C104.436 24.5815 103.677 23.0287 103.036 21.4327C102.448 19.9661 101.979 18.4691 101.63 16.9416C101.476 16.2718 101.353 15.5994 101.251 14.9219C101.235 14.8103 101.23 14.6961 101.24 14.587C101.263 14.3231 101.392 14.2064 101.687 14.1582C102 14.1049 102.315 14.1455 102.582 14.1303L102.579 14.1354Z" fill="#222222"/>
<path d="M95.6586 21.2348C95.6586 19.276 95.6586 17.3197 95.6586 15.3609C95.6586 15.201 95.6689 15.0387 95.6843 14.8788C95.7202 14.4703 95.969 14.2064 96.4461 14.1531C97.0335 14.0872 97.6286 14.0719 98.216 14.1531C98.7137 14.2191 98.9317 14.45 98.9958 14.9016C99.0215 15.0767 99.0343 15.2518 99.0343 15.4269C99.0343 19.3242 99.0343 23.219 99.0343 27.1163C99.0343 27.2964 99.0189 27.4766 98.9728 27.6542C98.8855 27.9916 98.6624 28.187 98.2725 28.2251C97.644 28.2834 97.013 28.286 96.3845 28.2301C95.9741 28.1946 95.7227 27.946 95.6817 27.5806C95.6432 27.2254 95.6612 26.8676 95.6586 26.5124C95.6586 24.754 95.6586 22.9957 95.6586 21.2398V21.2348Z" fill="#222222"/>
<path d="M97.3003 13.194C96.9694 13.2067 96.6359 13.2372 96.3101 13.1661C95.9228 13.0824 95.7125 12.8693 95.6843 12.5191C95.6432 11.999 95.6406 11.4763 95.6868 10.9561C95.7202 10.5755 95.9715 10.3167 96.4076 10.266C97.0104 10.1949 97.6209 10.1797 98.2237 10.2609C98.688 10.3218 98.9163 10.5298 98.9856 10.9384C99.0728 11.461 99.0651 11.9888 98.9933 12.514C98.924 13.0113 98.5085 13.1585 98.0801 13.189C97.8236 13.2093 97.5619 13.1915 97.3028 13.1915L97.3003 13.194Z" fill="#222222"/>
<path d="M29.531 22.9232C29.9395 21.888 30.0926 20.8206 29.972 19.721C29.849 18.6054 29.4684 17.5748 28.8325 16.6382C28.2431 15.7705 27.4889 15.0819 26.5792 14.5585C26.4028 14.4552 26.2218 14.368 26.0362 14.2899C25.9039 14.2348 25.7716 14.1843 25.637 14.1384C24.8619 13.8813 24.0427 13.7941 23.2189 13.7482C23.2003 13.7482 23.1818 13.7482 23.1655 13.7459C23.0611 13.739 22.9543 13.7367 22.8499 13.7321C22.2814 13.7115 21.7082 13.723 21.1373 13.7597C20.7381 13.7849 20.339 13.8033 19.9422 13.8377C19.5569 13.8722 19.1717 13.9272 18.7865 13.964C18.1808 14.0191 17.5797 14.1086 16.9787 14.2004C16.7791 14.2303 16.6909 14.384 16.7675 14.5677C16.9833 15.0819 17.2015 15.5961 17.4196 16.1079C17.5217 16.349 17.6262 16.5923 17.7283 16.8333C17.7979 17.0009 17.9232 17.0606 18.1042 17.033C18.32 16.9986 18.5405 16.971 18.7586 16.9458C18.8375 16.9366 18.9164 16.9274 18.9977 16.9183C19.8331 16.8218 20.6708 16.7438 21.5109 16.7117C22.3881 16.6795 23.2653 16.6818 24.1356 16.8195C24.1448 16.8195 24.1541 16.8218 24.1634 16.8241C24.3096 16.8471 24.4558 16.8792 24.5974 16.9205C24.7714 16.971 24.9408 17.0399 25.0986 17.1317C25.8459 17.5702 26.3935 18.1762 26.7231 18.975C27.1849 20.0952 27.0967 21.1901 26.549 22.2552C26.4933 22.3562 26.4376 22.4572 26.3819 22.5582C26.3703 22.5789 26.3564 22.595 26.3425 22.6133C25.5999 23.5958 24.6229 24.1719 23.3744 24.2362C22.2582 24.2959 21.2835 23.9768 20.5362 23.1046C19.8656 22.3241 19.3225 21.4587 18.812 20.5704C18.6867 20.35 18.5614 20.1296 18.4407 19.907C18.2527 19.558 18.0717 19.2068 17.8954 18.851C17.6215 18.3001 17.3616 17.74 17.111 17.1776C17.0994 17.1547 17.0901 17.1294 17.0785 17.1065C16.9346 16.7805 16.7954 16.4546 16.6585 16.1263C16.315 15.3068 15.9831 14.4828 15.6258 13.6679C15.1802 12.6533 14.6952 11.6593 14.1661 10.6837C13.7136 9.84819 13.2378 9.02641 12.6902 8.25054C12.6368 8.17249 12.5811 8.09674 12.5254 8.0187C12.4604 7.92917 12.3954 7.84195 12.3281 7.75472C11.8756 7.16478 11.3952 6.61616 10.822 6.16625C10.7199 6.08361 10.6132 6.00557 10.5041 5.93211C10.2419 5.75306 9.96109 5.59697 9.65708 5.46383C8.86342 5.12181 8.04424 4.9244 7.18792 4.87849C6.3641 4.83717 5.56115 4.95883 4.77446 5.20445C3.60718 5.56713 2.61626 6.20298 1.79476 7.08673C1.08696 7.84883 0.581061 8.73029 0.290981 9.72883C-0.138337 11.214 -0.080321 12.6785 0.488236 14.1247C1.05215 15.5616 2.01058 16.6635 3.33102 17.4692C4.20358 17.9994 5.17593 18.1922 6.17148 18.2909C6.9489 18.369 7.73327 18.3736 8.51533 18.3437C9.78936 18.2932 11.0588 18.1693 12.3189 17.9948C12.4697 17.9742 12.6182 17.9535 12.7691 17.9306C12.848 17.9191 12.9292 17.9076 13.0081 17.8938C13.2819 17.8502 13.3515 17.7331 13.2402 17.4761C12.9338 16.753 12.6252 16.0299 12.3189 15.3068C12.2191 15.0704 12.11 15.0153 11.8385 15.0589C11.6319 15.0933 11.4277 15.1232 11.2212 15.1484C11.1655 15.1553 11.1121 15.1622 11.0564 15.1668C10.6526 15.2127 10.2512 15.254 9.84738 15.2885C9.44126 15.3229 9.03515 15.3504 8.62672 15.3688C7.72167 15.4101 6.81894 15.4078 5.92317 15.2747C5.53795 15.2173 5.16432 15.114 4.83015 14.9028C4.12932 14.4621 3.6095 13.8745 3.30317 13.1078C2.79727 11.8475 2.89938 10.6218 3.67215 9.51994C4.56328 8.25054 5.83963 7.69733 7.40606 7.88326C8.03496 7.95672 8.59191 8.17709 9.063 8.56043C9.17207 8.64995 9.27882 8.74636 9.37861 8.85425C9.42502 8.90245 9.46911 8.95296 9.51088 9.00346C9.88915 9.45337 10.2349 9.92624 10.5529 10.4175C11.1168 11.292 11.6087 12.2033 12.0705 13.1307C12.2376 13.4659 12.4001 13.8056 12.5625 14.1453C12.6902 14.4162 12.8155 14.6893 12.9338 14.9625C13.261 15.7085 13.5627 16.4637 13.876 17.2121C14.1174 17.7905 14.368 18.3644 14.6302 18.9337C14.6929 19.0691 14.7555 19.2068 14.8205 19.3423C15.1408 20.0263 15.4796 20.7012 15.8369 21.3669C16.489 22.5812 17.1992 23.7588 18.0833 24.8285C18.2435 25.0236 18.4129 25.2072 18.5869 25.3817C18.9327 25.726 19.3063 26.029 19.7147 26.2815C20.0907 26.5156 20.4968 26.7084 20.9377 26.8531C22.2233 27.2754 23.5229 27.3328 24.8387 27.0046C25.6231 26.8095 26.3518 26.495 27.0155 26.0405C28.1688 25.2508 29.0228 24.2247 29.538 22.9232H29.531Z" fill="#FFC301"/>
<path d="M18.4686 27.1102C18.1646 26.8852 17.8698 26.6304 17.589 26.3527C17.3848 26.1484 17.1829 25.928 16.9949 25.7007C16.1711 24.7068 15.4308 23.5682 14.5977 22.0142C14.1707 21.22 13.7623 20.3982 13.3539 19.503V19.4984C13.3191 19.4272 13.2634 19.3698 13.1984 19.3354C13.1311 19.2987 13.0545 19.2849 12.9733 19.2964C11.3999 19.5305 9.95877 19.6705 8.56406 19.7256C7.61492 19.7623 6.78413 19.744 6.02528 19.6659C5.37318 19.6017 4.57256 19.4869 3.76034 19.1977C3.58629 19.1357 3.39136 19.2114 3.31246 19.379C1.18443 23.8667 2.11501 27.9228 4.93458 30.3605L5.00884 33.2781C5.01813 33.6683 5.44976 33.9002 5.78626 33.6959L8.29023 32.1832C11.9081 33.2368 15.8903 31.8159 18.5614 27.583C18.6588 27.4269 18.6194 27.2226 18.4709 27.1125L18.4686 27.1102ZM8.67313 22.4756C9.62227 22.4389 10.5877 22.3654 11.5902 22.2529C11.7689 22.611 11.9522 22.9599 12.1378 23.3043C13.0058 24.9203 13.7925 26.1438 14.665 27.2295L5.70039 22.4021C5.71432 22.4021 5.73056 22.4044 5.74449 22.4067C6.63097 22.4963 7.58939 22.5192 8.67545 22.4779L8.67313 22.4756ZM7.87251 29.0406C6.50333 28.3038 5.56348 27.1859 5.15968 25.8063C5.09935 25.5974 5.05061 25.3863 5.01348 25.1682L12.7134 29.3138C12.5092 29.401 12.3026 29.4768 12.0938 29.5388C10.7037 29.9497 9.24401 29.7775 7.87483 29.0406H7.87251Z" fill="#FFC301"/>
<path d="M13.6486 7.21529C13.6764 7.25432 13.7043 7.29334 13.7344 7.33236L15.6118 6.1961C16.6863 5.54648 18.0439 5.51205 19.1508 6.10887L21.1628 7.19234C22.2698 7.78916 22.9776 8.93231 23.0077 10.1787L23.0634 12.364C23.1168 12.364 23.1702 12.3686 23.2235 12.3709C23.2444 12.3709 23.263 12.3709 23.2839 12.3732H23.2978C24.0775 12.4168 24.964 12.5018 25.8482 12.7612C25.8528 12.6326 25.8528 12.5041 25.8482 12.3732L25.7902 10.1099C25.7554 8.76244 25.2843 7.48616 24.479 6.4509C24.5115 6.42565 24.544 6.39581 24.5718 6.36597L25.9248 4.88539C26.2961 4.47909 26.1684 3.79045 25.6393 3.34971C25.1102 2.90898 24.3792 2.88144 24.0079 3.28774L22.655 4.76832C22.6364 4.78898 22.6179 4.81193 22.6016 4.83489C22.5645 4.81423 22.5274 4.79357 22.4902 4.77291L20.4782 3.68944C20.4411 3.66879 20.4016 3.65042 20.3645 3.62976C20.3738 3.60451 20.3831 3.57697 20.3924 3.54942L20.9168 1.62352C21.0607 1.09326 20.6407 0.501031 19.9793 0.301324C19.3179 0.101618 18.6635 0.367893 18.5196 0.898148L17.9951 2.82405C17.9835 2.86537 17.9766 2.90669 17.9719 2.94801C16.6561 2.84012 15.3171 3.14083 14.1545 3.84554L12.2005 5.02771C12.0868 5.09657 11.9754 5.16773 11.8687 5.24348C12.5277 5.79899 13.0359 6.41647 13.4258 6.92606C13.5047 7.02706 13.5766 7.12347 13.6439 7.21759L13.6486 7.21529Z" fill="#FFC301"/>
</g>
<defs>
<clipPath id="clip0_53_772">
<rect width="128" height="34" fill="white"/>
</clipPath>
</defs>
</svg>
